<mxfile host="app.diagrams.net" modified="2024-06-13T06:47:59.978Z" agent="Mozilla/5.0 (Windows NT 10.0; Win64; x64) AppleWebKit/537.36 (KHTML, like Gecko) Chrome/125.0.0.0 Safari/537.36" version="22.1.16" etag="83HTvPaaR7y1aQQ0QL49" type="github">
  <diagram name="第 1 页" id="UrRhTKH0Ew3d4rTfO0Zv">
    <mxGraphModel>
      <root>
        <mxCell id="0" />
        <mxCell id="1" parent="0" />
      </root>
    </mxGraphModel>
  </diagram>
</mxfile>
